<svg width="1119" height="1027" viewBox="0 0 1119 1027" fill="none" xmlns="http://www.w3.org/2000/svg">
<path fill-rule="evenodd" clip-rule="evenodd" d="M653.215 426.546C763.068 409.884 869.182 393.77 955.233 377.935L955.505 379.41C869.426 395.25 763.286 411.368 653.44 428.029L651.139 428.378C542.004 444.932 429.323 462.022 329.087 479.913C228.137 497.931 139.852 516.754 80.5368 536.644C50.8631 546.594 28.5245 556.784 15.4703 567.224C8.94447 572.442 4.81187 577.666 3.18967 582.882C1.58067 588.056 2.41031 593.323 6.02498 598.745C20.7745 620.869 47.4421 636.546 82.464 647.734C117.473 658.917 160.722 665.579 208.495 669.753C266.687 674.837 331.485 676.222 396.193 677.606C437.77 678.495 479.31 679.383 519.035 681.251C598.781 685.001 683.843 690.877 748.978 705.581C781.54 712.932 809.188 722.502 828.713 735.16C848.25 747.825 859.75 763.654 859.75 783.5C859.75 793.742 851.648 801.084 838.237 806.477C824.785 811.887 805.685 815.474 783.019 818.059C753.396 821.437 717.541 823.117 680.024 824.874C660.129 825.807 639.767 826.76 619.619 828.001C561.412 831.586 504.987 837.563 466.443 852.266C447.172 859.618 432.476 869.112 424.231 881.481C416.014 893.806 414.127 909.099 420.709 928.256C437.325 976.616 488.968 1000.91 536.748 1013.09C560.604 1019.17 583.422 1022.21 600.278 1023.73C608.706 1024.49 615.64 1024.87 620.466 1025.06C622.879 1025.16 624.765 1025.2 626.046 1025.23C626.687 1025.24 627.176 1025.24 627.505 1025.25C627.602 1025.25 627.685 1025.25 627.754 1025.25L627.877 1025.25L627.993 1025.25H627.998C627.998 1025.25 628 1025.25 628 1025.48C628 1025.6 628 1025.76 628 1026C628 1026.75 627.998 1026.75 627.998 1026.75H627.991L627.87 1026.75C627.785 1026.75 627.658 1026.75 627.492 1026.75C627.305 1026.75 627.067 1026.74 626.78 1026.74C626.556 1026.74 626.302 1026.73 626.018 1026.73C624.727 1026.7 622.831 1026.65 620.407 1026.56C615.559 1026.37 608.599 1025.99 600.144 1025.22C583.235 1023.7 560.334 1020.65 536.377 1014.54C488.533 1002.34 436.175 977.884 419.291 928.744C412.588 909.236 414.457 893.437 422.982 880.649C431.479 867.904 446.514 858.263 465.908 850.865C504.695 836.069 561.341 830.087 619.527 826.504C639.732 825.26 660.123 824.305 680.03 823.372C717.51 821.617 753.273 819.941 782.849 816.568C805.49 813.986 824.423 810.416 837.677 805.086C850.972 799.739 858.25 792.757 858.25 783.5C858.25 764.345 847.188 748.924 827.897 736.418C808.593 723.904 781.148 714.381 748.647 707.044C683.657 692.373 598.719 686.499 518.965 682.749C479.328 680.885 437.822 679.997 396.255 679.108C331.495 677.723 266.587 676.334 208.364 671.247C160.549 667.07 117.172 660.395 82.0076 649.162C46.8561 637.934 19.8034 622.117 4.77691 599.577C0.947569 593.833 -0.00420308 588.101 1.75733 582.437C3.50567 576.815 7.89555 571.361 14.5335 566.052C27.8068 555.438 50.361 545.18 80.06 535.222C139.49 515.294 227.871 496.455 328.824 478.436C429.078 460.542 541.775 443.449 650.901 426.897L653.215 426.546Z" fill="#252525"/>
<path fill-rule="evenodd" clip-rule="evenodd" d="M581.554 22.8411C401.24 4.96577 211.209 0.0539193 85.7197 2.0147L85.6963 0.514879C211.234 -1.44666 401.323 3.46667 581.702 21.3484C671.891 30.2892 759.665 42.4734 835.736 58.6649C911.791 74.8531 976.207 95.0591 1019.64 120.07C1069.72 148.911 1098.06 178.217 1110.49 206.356C1122.95 234.534 1119.42 261.449 1106 285.352C1092.59 309.228 1069.31 330.096 1042.25 346.309C1015.18 362.526 984.263 374.118 955.505 379.41C869.426 395.25 763.286 411.368 653.44 428.029L651.139 428.378C542.004 444.932 429.323 462.022 329.087 479.913C228.137 497.931 139.852 516.754 80.5368 536.644C50.8631 546.594 28.5245 556.784 15.4703 567.224C8.94447 572.442 4.81187 577.666 3.18967 582.882C1.58067 588.056 2.41031 593.323 6.02498 598.745L4.77691 599.577C0.947569 593.833 -0.00420308 588.101 1.75733 582.437C3.50567 576.815 7.89555 571.361 14.5335 566.052C27.8068 555.438 50.361 545.18 80.06 535.222C139.49 515.294 227.871 496.455 328.824 478.436C429.078 460.542 541.773 443.449 650.9 426.898L653.215 426.546C763.068 409.884 869.182 393.77 955.233 377.935C983.811 372.676 1014.56 361.149 1041.48 345.022C1068.4 328.892 1091.45 308.191 1104.69 284.617C1117.91 261.07 1121.36 234.653 1109.12 206.962C1096.87 179.232 1068.84 150.131 1018.89 121.37C975.666 96.4787 911.436 76.3112 835.423 60.132C759.426 43.956 671.711 31.7787 581.554 22.8411Z" fill="#252525"/>
</svg>
