<svg width="80" height="80" viewBox="0 0 80 80" fill="none" xmlns="http://www.w3.org/2000/svg">
<g filter="url(#filter0_b_114_935)">
<rect width="80" height="80" rx="15" fill="white" fill-opacity="0.01"/>
<rect x="0.5" y="0.5" width="79" height="79" rx="14.5" stroke="url(#paint0_linear_114_935)"/>
<rect x="0.5" y="0.5" width="79" height="79" rx="14.5" stroke="url(#paint1_linear_114_935)"/>
<path d="M39.9968 23.3333C34.9839 23.3333 31.7335 26.6982 27.8894 27.9248C26.3263 28.4235 25.5448 28.6728 25.2285 29.0243C24.9122 29.3758 24.8196 29.8895 24.6344 30.9168C22.6522 41.9099 26.9847 52.0732 37.317 56.029C38.4271 56.4541 38.9822 56.6666 40.0023 56.6666C41.0224 56.6666 41.5774 56.4541 42.6875 56.029C53.0192 52.0732 57.3475 41.9099 55.3648 30.9168C55.1795 29.8893 55.0868 29.3756 54.7705 29.0241C54.4541 28.6725 53.6726 28.4233 52.1097 27.9249C48.2641 26.6985 45.01 23.3333 39.9968 23.3333Z" stroke="white" stroke-width="1.5" stroke-linecap="round" stroke-linejoin="round"/>
<path d="M35 41.6667C35 41.6667 36.6667 41.6667 38.3333 45C38.3333 45 43.6275 36.6667 48.3333 35" stroke="white" stroke-width="1.5" stroke-linecap="round" stroke-linejoin="round"/>
</g>
<defs>
<filter id="filter0_b_114_935" x="-50" y="-50" width="180" height="180" filterUnits="userSpaceOnUse" color-interpolation-filters="sRGB">
<feFlood flood-opacity="0" result="BackgroundImageFix"/>
<feGaussianBlur in="BackgroundImageFix" stdDeviation="25"/>
<feComposite in2="SourceAlpha" operator="in" result="effect1_backgroundBlur_114_935"/>
<feBlend mode="normal" in="SourceGraphic" in2="effect1_backgroundBlur_114_935" result="shape"/>
</filter>
<linearGradient id="paint0_linear_114_935" x1="2.42131" y1="83.6552" x2="14.8129" y2="50.8618" gradientUnits="userSpaceOnUse">
<stop stop-color="white"/>
<stop offset="1" stop-color="#999999" stop-opacity="0"/>
</linearGradient>
<linearGradient id="paint1_linear_114_935" x1="88.6199" y1="-6.68965" x2="69.3739" y2="37.3209" gradientUnits="userSpaceOnUse">
<stop stop-color="white"/>
<stop offset="1" stop-color="#999999" stop-opacity="0"/>
</linearGradient>
</defs>
</svg>
